<svg id="Layer_1" data-name="Layer 1" xmlns="http://www.w3.org/2000/svg" viewBox="0 0 821.56 241.06"><defs><style>.cls-1,.cls-2{fill:#231f20;}.cls-2{font-size:29.05px;font-family:Gotham-Medium, Gotham;font-weight:500;letter-spacing:-0.03em;}.cls-3{letter-spacing:-0.15em;}.cls-4{letter-spacing:-0.02em;}.cls-5{letter-spacing:-0.11em;}</style></defs><rect class="cls-1" x="394.2" y="156.23" width="20.14" height="20.14" rx="2.17"/><rect class="cls-1" x="541.59" y="156.23" width="20.14" height="20.14" rx="2.17"/><rect class="cls-1" x="689.15" y="156.23" width="20.14" height="20.14" rx="2.17"/><rect class="cls-1" x="431.9" y="66.84" width="21.52" height="109.53" rx="1.55"/><path class="cls-1" d="M532.55,70.55H510.13a2.17,2.17,0,0,0-1.65.76l-44.72,52.6a2.17,2.17,0,0,0,0,2.81l44.72,52.59a2.14,2.14,0,0,0,1.65.77h22.42a1.55,1.55,0,0,0,1.18-2.55l-43.2-50.81a2.17,2.17,0,0,1,0-2.81l43.2-50.81A1.55,1.55,0,0,0,532.55,70.55Z" transform="translate(-3.67 -3.7)"/><rect class="cls-1" x="579.46" y="66.84" width="21.52" height="109.53" rx="1.55"/><path class="cls-1" d="M680.12,70.55H657.69a2.18,2.18,0,0,0-1.65.76l-44.72,52.6a2.17,2.17,0,0,0,0,2.81L656,179.31a2.16,2.16,0,0,0,1.65.77h22.43a1.55,1.55,0,0,0,1.18-2.55l-43.21-50.81a2.19,2.19,0,0,1,0-2.81L681.3,73.1A1.55,1.55,0,0,0,680.12,70.55Z" transform="translate(-3.67 -3.7)"/><rect class="cls-1" x="324.85" y="111.54" width="32.65" height="20.14" rx="1.55"/><path class="cls-1" d="M380.14,89.38v-17a1.55,1.55,0,0,0-1.55-1.55H289.73a1.55,1.55,0,0,0-1.55,1.55V178.53a1.56,1.56,0,0,0,1.55,1.55h88.86a1.56,1.56,0,0,0,1.55-1.55V161.48a1.56,1.56,0,0,0-1.55-1.55H309.87a1.54,1.54,0,0,1-1.54-1.54V92.48a1.54,1.54,0,0,1,1.54-1.55h68.72A1.55,1.55,0,0,0,380.14,89.38Z" transform="translate(-3.67 -3.7)"/><path class="cls-1" d="M768.64,69.57a55.86,55.86,0,1,0,55.86,55.86A55.86,55.86,0,0,0,768.64,69.57Zm0,91.3a35.44,35.44,0,1,1,35.44-35.44A35.44,35.44,0,0,1,768.64,160.87Z" transform="translate(-3.67 -3.7)"/><path class="cls-1" d="M242.53,101.23A120.26,120.26,0,0,0,209.43,39a121.77,121.77,0,0,0-18.9-15.44,120.27,120.27,0,0,0-10.87-6.38,1.91,1.91,0,0,0-2.25.35l-120,120a1.94,1.94,0,0,0,0,2.73l15.11,15.1a1.91,1.91,0,0,0,2.72,0L180.89,49.71a1.94,1.94,0,0,1,2.57-.15,96.23,96.23,0,0,1,8.14,7.28A94.73,94.73,0,0,1,217.77,106a95.69,95.69,0,0,1-5.23,54.09,95.28,95.28,0,0,1-70.12,57.7,96.88,96.88,0,0,1-18.22,1.74c-1.5,0-3,0-4.5-.11a3.43,3.43,0,0,0-2.55,1L98.6,239a1.94,1.94,0,0,0,1,3.26l1.62.32a120.29,120.29,0,0,0,108.24-33.1,120.22,120.22,0,0,0,33.1-62.22,121.38,121.38,0,0,0,0-46Z" transform="translate(-3.67 -3.7)"/><path class="cls-1" d="M191,108.21l-15.1-15.1a1.93,1.93,0,0,0-2.72,0L67.51,198.76a1.94,1.94,0,0,1-2.57.15,96.23,96.23,0,0,1-8.14-7.28,94.73,94.73,0,0,1-26.17-49.18,95.69,95.69,0,0,1,5.23-54.09A95.28,95.28,0,0,1,106,30.66a96.88,96.88,0,0,1,18.22-1.74c1.5,0,3,0,4.5.11a3.43,3.43,0,0,0,2.55-1L149.8,9.49a1.94,1.94,0,0,0-1-3.26l-1.62-.32a120.68,120.68,0,0,0-123.67,52A120.18,120.18,0,0,0,5.87,101.23a121.38,121.38,0,0,0,0,46A120.26,120.26,0,0,0,39,209.46a121.77,121.77,0,0,0,18.9,15.44,120.27,120.27,0,0,0,10.87,6.38,1.91,1.91,0,0,0,2.25-.35l18.07-18.06h0L191,110.94A1.92,1.92,0,0,0,191,108.21Z" transform="translate(-3.67 -3.7)"/><text class="cls-2" transform="translate(282.05 216.06)">E<tspan class="cls-3" x="18.74" y="0">L</tspan><tspan class="cls-4" x="32.22" y="0">YDIAN KINGDOM KEY OPER</tspan><tspan class="cls-5" x="435.65" y="0">A</tspan><tspan class="cls-4" x="455.26" y="0">TIVES</tspan></text></svg>