<svg id="Layer_1" data-name="Layer 1" xmlns="http://www.w3.org/2000/svg" viewBox="0 0 496.05 496.05"><defs><style>.cls-1{fill:#fff;}</style></defs><path class="cls-1" d="M493.52,203A248.17,248.17,0,0,0,364.16,30.1a4,4,0,0,0-4.64.71l-247,247a4,4,0,0,0,0,5.62l31.08,31.07a4,4,0,0,0,5.61,0L366.69,97a4,4,0,0,1,5.28-.3,200,200,0,0,1,16.75,15,195.14,195.14,0,0,1,53.86,101.2,196.78,196.78,0,0,1-10.77,111.31,195.86,195.86,0,0,1-144.3,118.73A197.92,197.92,0,0,1,250,446.51q-4.64,0-9.26-.22a7,7,0,0,0-5.24,2l-38.18,38.18a4,4,0,0,0,2,6.7l3.33.67a248.59,248.59,0,0,0,140.67-13.63,246.24,246.24,0,0,0,43.17-22.72,250,250,0,0,0,70.65-70.65,246.24,246.24,0,0,0,22.72-43.17A249.14,249.14,0,0,0,493.52,203Z" transform="translate(-2 -2.34)"/><path class="cls-1" d="M387.46,217.4l-31.08-31.08a4,4,0,0,0-5.61,0L133.36,403.72a4,4,0,0,1-5.27.31,196.88,196.88,0,0,1-16.75-15A195.11,195.11,0,0,1,57.48,287.85a197.49,197.49,0,0,1,0-75A195.88,195.88,0,0,1,212.54,57.82,198,198,0,0,1,250,54.23q4.62,0,9.26.22a7,7,0,0,0,5.24-2l38.18-38.18a4,4,0,0,0-2-6.69c-1.11-.23-2.22-.46-3.33-.67a248,248,0,0,0-254.5,380,250.37,250.37,0,0,0,70.65,70.65,245.1,245.1,0,0,0,22.37,13.13,4,4,0,0,0,4.64-.71l37.17-37.18h0L387.46,223A4,4,0,0,0,387.46,217.4Z" transform="translate(-2 -2.34)"/></svg>